<svg id="Capa_1" enable-background="new 0 0 512 512" height="512" viewBox="0 0 512 512" width="512" xmlns="http://www.w3.org/2000/svg"><path d="m358.46 0c-51.313 0-93.06 41.742-93.06 93.05 0 4.293.3 8.555.879 12.764-6.246 2.272-11.616 5.354-15.479 7.919-11.62-13.15-45.414-40.057-124.549-34.686-15.665 1.069-32.487 3.373-49.997 6.846-32.736 6.487-52.642 26.275-59.167 58.814-5.472 27.289-1.337 59.446 2.66 90.544.793 6.165 1.546 12.05 2.218 17.823-7.753 6.426-12.7 16.126-12.7 26.961 0 16.856 11.978 30.964 27.869 34.265.173 5.349.382 10.691.655 16.014.445 8.664 2.3 17.101 5.514 25.077 1.547 3.842 5.917 5.703 9.759 4.154 3.842-1.547 5.702-5.917 4.154-9.759-2.59-6.432-4.086-13.242-4.446-20.241-1.222-23.893-1.422-48.133-.596-72.123 12.285-6.707 21.494-20.958 27.416-42.457 2.661-9.634 9.953-17.095 19.507-19.957 9.506-2.847 19.642-.641 27.113 5.903 12.327 10.793 28.142 16.737 44.531 16.737 16.384 0 32.201-5.943 44.542-16.738 5.325-4.666 11.815-7.132 18.768-7.132 10.955 0 23.814 6.55 27.851 21.186 5.937 21.509 15.15 35.762 27.428 42.463.83 23.895.629 48.132-.598 72.118-1.659 32.456-27.412 58.087-59.904 59.621-38.532 1.82-77.611 1.821-116.152 0-15.149-.716-29.522-6.856-40.471-17.288-3-2.858-7.747-2.744-10.604.256-2.857 2.999-2.743 7.747.256 10.604 5.657 5.39 12.059 9.84 18.952 13.278-4.784 4.904-10.567 11.888-16.407 21.512-13.89 22.891-22.93 51.864-26.869 86.114-.245 2.125.43 4.252 1.853 5.848s3.46 2.509 5.598 2.509h251.53c2.138 0 4.175-.913 5.598-2.509s2.097-3.724 1.853-5.848c-7.071-61.484-29.547-93.399-43.252-107.553 24.487-12.162 41.516-36.765 42.998-65.777.272-5.327.482-10.668.655-16.013 15.889-3.303 27.865-17.41 27.865-34.264 0-11.418-5.495-21.575-13.977-27.969.869-2.998 2-7.085 3.229-11.993 2.654 1.005 5.527 1.559 8.528 1.559h4.277v4.28c0 6.455 2.513 12.523 7.083 17.093 4.57 4.557 10.638 7.067 17.085 7.067 13.322 0 24.16-10.838 24.16-24.16v-4.28h4.281c13.323 0 24.163-10.839 24.163-24.163 0-6.456-2.55-12.324-6.689-16.663 4.139-4.339 6.689-10.207 6.689-16.663 0-4.438-1.208-8.596-3.304-12.174 9.237-5.79 17.477-13.201 24.157-21.799 2.542-3.271 1.95-7.983-1.321-10.524s-7.983-1.949-10.524 1.321c-6.574 8.461-14.947 15.553-24.363 20.683-2.731-1.073-5.701-1.67-8.808-1.67h-20.941v-42.993c16.671-1.691 32.127-8.997 44.136-21.006 2.929-2.929 2.929-7.678 0-10.606-2.929-2.929-7.678-2.929-10.606 0-10.96 10.96-25.532 16.996-41.031 16.996-15.5 0-30.072-6.036-41.032-16.996-2.928-2.929-7.677-2.929-10.606 0s-2.929 7.677 0 10.606c12.01 12.01 27.468 19.316 44.14 21.006v42.993h-20.945c-3.108 0-6.078.596-8.81 1.67-25.256-13.69-40.801-39.651-40.801-68.602 0-43.037 35.018-78.05 78.06-78.05 43.037 0 78.05 35.013 78.05 78.05 0 8.183-1.254 16.228-3.729 23.911-1.27 3.943.897 8.168 4.84 9.438 3.947 1.271 8.169-.897 9.438-4.84 2.954-9.171 4.451-18.762 4.451-28.509-.001-51.306-41.744-93.048-93.051-93.048zm-169.362 473.921-18.35 13.157-18.35-13.157 5.301-35.958h26.098zm-18.344-68.387c5.21 0 10.419-.037 15.626-.102l-2.582 17.529h-26.097l-2.582-17.529c5.211.064 10.422.102 15.635.102zm-74.245-3.696c5.031 1.272 10.203 2.066 15.456 2.314 9.291.439 18.613.765 27.95.995l3.727 25.308-6.753 45.802c-.41 2.778.768 5.553 3.05 7.189l18.905 13.554h-54.421v-33.63c0-4.142-3.358-7.5-7.5-7.5s-7.5 3.358-7.5 7.5v33.63h-35.906c8.882-61.397 33.52-87.284 42.992-95.162zm191.47 95.162h-35.906v-33.63c0-4.142-3.358-7.5-7.5-7.5s-7.5 3.358-7.5 7.5v33.63h-54.422l18.903-13.553c2.282-1.636 3.459-4.411 3.05-7.189l-6.751-45.789 3.729-25.322c9.338-.23 18.66-.557 27.95-.995 5.327-.251 10.501-1.04 15.485-2.288 9.498 7.909 34.091 33.81 42.962 95.136zm-263.714-216.964c0-8.483 5.313-15.731 12.777-18.636-.36 12.359-.446 24.771-.273 37.163-7.322-2.972-12.504-10.151-12.504-18.527zm280.468 18.524c.175-12.414.089-24.825-.273-37.158 7.461 2.907 12.771 10.154 12.771 18.634 0 8.374-5.179 15.551-12.498 18.524zm62.883-52.647c0 5.051-4.109 9.16-9.16 9.16-2.449 0-4.755-.955-6.487-2.681-1.729-1.729-2.681-4.03-2.681-6.479v-4.28h18.328zm19.281-19.28h-56.886c-5.052 0-9.163-4.11-9.163-9.163s4.11-9.163 9.163-9.163h56.886c5.052 0 9.163 4.11 9.163 9.163-.001 5.052-4.111 9.163-9.163 9.163zm0-51.652c5.052 0 9.163 4.11 9.163 9.163 0 5.052-4.11 9.163-9.163 9.163h-56.886c-5.052 0-9.163-4.11-9.163-9.163s4.11-9.163 9.163-9.163zm-77.75-3.003c-2.093 3.576-3.299 7.732-3.299 12.166 0 6.456 2.55 12.324 6.689 16.663-4.139 4.339-6.689 10.207-6.689 16.663 0 4.134 1.045 8.027 2.882 11.433-1.558 6.848-3.1 12.666-4.286 16.877-2.043-.43-4.153-.673-6.309-.728-11.602-5.118-18.232-21.24-21.776-34.076-5.227-18.957-22.626-32.197-42.31-32.197-10.491 0-20.667 3.853-28.648 10.845-9.602 8.399-21.911 13.025-34.662 13.025-12.753 0-25.058-4.625-34.649-13.022-11.379-9.965-26.817-13.325-41.299-8.987-14.529 4.352-25.618 15.691-29.663 30.337-3.534 12.831-10.153 28.948-21.764 34.073-2.451.062-4.84.376-7.142.92-.506-4.124-1.041-8.308-1.597-12.633-3.844-29.896-7.818-60.811-2.831-85.683 5.365-26.757 20.419-41.708 47.376-47.05 16.887-3.35 33.071-5.568 48.099-6.594 47.979-3.257 76.913 6.224 92.735 14.752 16.841 9.077 22.707 19 22.728 19.034 1.097 1.99 3.037 3.376 5.275 3.769 2.235.393 4.534-.252 6.242-1.751.079-.069 6.537-5.593 15.323-9.197 2.442 7.884 5.923 15.443 10.414 22.472 7.492 11.726 17.461 21.572 29.161 28.889z"/><path d="m170.748 343.129c13.819 0 26.578-8.068 32.504-20.555 1.776-3.742.182-8.216-3.56-9.992-3.744-1.776-8.216-.182-9.992 3.56-3.456 7.282-10.895 11.987-18.952 11.987s-15.497-4.705-18.953-11.987c-1.776-3.741-6.249-5.337-9.991-3.56-3.742 1.776-5.336 6.249-3.56 9.991 5.927 12.488 18.685 20.556 32.504 20.556z"/><path d="m123.635 270.378c0-9.389-5.129-17.027-11.435-17.027s-11.435 7.639-11.435 17.027 5.13 17.027 11.435 17.027 11.435-7.638 11.435-17.027z"/><ellipse cx="229.297" cy="270.378" rx="11.435" ry="17.027"/><path d="m459.234 33.914 6.718-19.365c1.357-3.913-.714-8.186-4.628-9.544-3.912-1.357-8.186.714-9.544 4.627l-6.718 19.365c-1.357 3.913.714 8.186 4.628 9.544.813.282 1.643.416 2.458.416 3.106.001 6.011-1.943 7.086-5.043z"/><path d="m499.365 26.279c-2.354-3.408-7.025-4.264-10.433-1.911l-29.124 20.108c-3.409 2.354-4.264 7.025-1.911 10.433 1.456 2.108 3.797 3.24 6.179 3.24 1.469 0 2.954-.431 4.254-1.329l29.124-20.108c3.409-2.354 4.264-7.025 1.911-10.433z"/><path d="m495.802 61.809-16.168-1.228c-4.138-.313-7.733 2.781-8.046 6.911s2.78 7.733 6.911 8.046l16.168 1.228c.193.015.385.022.576.022 3.884 0 7.172-2.995 7.471-6.932.312-4.131-2.782-7.733-6.912-8.047z"/><path d="m256.958 33.914c1.076 3.1 3.979 5.044 7.085 5.044.815 0 1.645-.134 2.458-.416 3.914-1.358 5.985-5.631 4.628-9.544l-6.718-19.365c-1.358-3.914-5.631-5.985-9.544-4.627-3.914 1.358-5.985 5.631-4.628 9.544z"/><path d="m218.739 36.712 29.124 20.108c1.301.898 2.785 1.329 4.254 1.329 2.381 0 4.723-1.132 6.179-3.24 2.354-3.408 1.498-8.08-1.911-10.433l-29.124-20.108c-3.409-2.353-8.079-1.498-10.433 1.911-2.354 3.408-1.498 8.079 1.911 10.433z"/><path d="m220.95 76.788c.19 0 .383-.007.576-.022l16.168-1.228c4.13-.314 7.224-3.916 6.911-8.046s-3.919-7.223-8.046-6.911l-16.168 1.228c-4.13.314-7.224 3.916-6.911 8.046.299 3.938 3.586 6.933 7.47 6.933z"/></svg>